<svg width="150" height="150" viewBox="0 0 150 150" fill="none" xmlns="http://www.w3.org/2000/svg">
<rect width="150" height="150" rx="75" fill="#950002"/>
<path d="M107.239 75.3556L87.7869 68.8724C86.7753 68.5345 85.8451 67.9898 85.0554 67.2729C84.2657 66.556 83.6339 65.6827 83.2 64.7084L75.7655 47.325C75.7655 47.325 75.7655 47.3026 75.7655 47.293C75.2361 46.1055 74.2752 45.1637 73.0775 44.6582C71.8797 44.1527 70.5345 44.1213 69.3145 44.5703L45.0604 53.3757C44.073 53.7374 43.2202 54.3931 42.6171 55.2546C42.014 56.116 41.6895 57.1416 41.6875 58.1932V95.5C41.6875 96.8592 42.2275 98.1628 43.1886 99.1239C44.1497 100.085 45.4533 100.625 46.8125 100.625H110.875C112.234 100.625 113.538 100.085 114.499 99.1239C115.46 98.1628 116 96.8592 116 95.5V87.5114C116 84.8222 115.154 82.2011 113.582 80.0194C112.01 77.8377 109.791 76.206 107.239 75.3556ZM71.0666 49.375L73.344 54.7018L66.438 57.2163C65.8715 57.4219 65.3956 57.8206 65.094 58.3423C64.7923 58.864 64.6841 59.4754 64.7886 60.0689C64.893 60.6625 65.2032 61.2003 65.6648 61.5877C66.1264 61.9752 66.7098 62.1876 67.3125 62.1875C67.611 62.1871 67.907 62.134 68.187 62.0306L75.362 59.4232L76.8802 62.9691L71.563 64.8909C70.9873 65.09 70.5013 65.4877 70.1922 66.0127C69.8831 66.5376 69.7712 67.1556 69.8764 67.7556C69.9817 68.3556 70.2973 68.8985 70.7667 69.2869C71.236 69.6753 71.8284 69.8838 72.4375 69.875C72.736 69.8746 73.032 69.8215 73.312 69.7181L78.9495 67.6681C79.596 68.8584 80.4262 69.9394 81.4095 70.8712L76.688 72.5881C76.1193 72.7921 75.6409 73.1906 75.3375 73.7131C75.034 74.2356 74.925 74.8486 75.0296 75.4437C75.1342 76.0388 75.4458 76.5778 75.9092 76.9655C76.3727 77.3532 76.9583 77.5647 77.5625 77.5625C77.8606 77.5616 78.1564 77.5096 78.437 77.4088L87.4057 74.148L105.622 80.2179C106.782 80.6057 107.832 81.2645 108.686 82.1397C109.54 83.0149 110.173 84.0812 110.532 85.25H46.8125V58.1932L71.0666 49.375ZM46.8125 95.5V90.375H110.875V95.5H46.8125Z" fill="white"/>
</svg>
