<svg width="150" height="150" viewBox="0 0 150 150" fill="none" xmlns="http://www.w3.org/2000/svg">
<rect width="150" height="150" rx="75" fill="#950002"/>
<path d="M87.8125 46.9983V44.25C87.8125 42.2111 87.0026 40.2558 85.5609 38.8141C84.1192 37.3724 82.1639 36.5625 80.125 36.5625H69.875C67.8361 36.5625 65.8808 37.3724 64.4391 38.8141C62.9974 40.2558 62.1875 42.2111 62.1875 44.25V46.9983C57.9212 47.6201 54.0208 49.7554 51.1981 53.0143C48.3755 56.2733 46.8189 60.4386 46.8125 64.75V103.188C46.8125 104.547 47.3525 105.85 48.3136 106.811C49.2747 107.773 50.5783 108.312 51.9375 108.312H98.0625C99.4217 108.312 100.725 107.773 101.686 106.811C102.648 105.85 103.188 104.547 103.188 103.188V64.75C103.181 60.4386 101.624 56.2733 98.8019 53.0143C95.9792 49.7554 92.0788 47.6201 87.8125 46.9983ZM69.875 41.6875H80.125C80.8046 41.6875 81.4564 41.9575 81.937 42.438C82.4175 42.9186 82.6875 43.5704 82.6875 44.25V46.8125H67.3125V44.25C67.3125 43.5704 67.5825 42.9186 68.063 42.438C68.5436 41.9575 69.1954 41.6875 69.875 41.6875ZM87.8125 85.25H62.1875V82.6875C62.1875 82.0079 62.4575 81.3561 62.938 80.8755C63.4186 80.395 64.0704 80.125 64.75 80.125H85.25C85.9296 80.125 86.5814 80.395 87.062 80.8755C87.5425 81.3561 87.8125 82.0079 87.8125 82.6875V85.25ZM62.1875 90.375H77.5625V92.9375C77.5625 93.6171 77.8325 94.2689 78.313 94.7495C78.7936 95.23 79.4454 95.5 80.125 95.5C80.8046 95.5 81.4564 95.23 81.937 94.7495C82.4175 94.2689 82.6875 93.6171 82.6875 92.9375V90.375H87.8125V103.188H62.1875V90.375ZM98.0625 103.188H92.9375V82.6875C92.9375 80.6486 92.1276 78.6933 90.6859 77.2516C89.2442 75.8099 87.2889 75 85.25 75H64.75C62.7111 75 60.7558 75.8099 59.3141 77.2516C57.8724 78.6933 57.0625 80.6486 57.0625 82.6875V103.188H51.9375V64.75C51.9375 61.3519 53.2874 58.093 55.6902 55.6902C58.093 53.2874 61.3519 51.9375 64.75 51.9375H85.25C88.6481 51.9375 91.907 53.2874 94.3098 55.6902C96.7126 58.093 98.0625 61.3519 98.0625 64.75V103.188ZM82.6875 62.1875C82.6875 62.8671 82.4175 63.5189 81.937 63.9995C81.4564 64.48 80.8046 64.75 80.125 64.75H69.875C69.1954 64.75 68.5436 64.48 68.063 63.9995C67.5825 63.5189 67.3125 62.8671 67.3125 62.1875C67.3125 61.5079 67.5825 60.8561 68.063 60.3755C68.5436 59.895 69.1954 59.625 69.875 59.625H80.125C80.8046 59.625 81.4564 59.895 81.937 60.3755C82.4175 60.8561 82.6875 61.5079 82.6875 62.1875Z" fill="white"/>
</svg>
