<svg width="150" height="150" viewBox="0 0 150 150" fill="none" xmlns="http://www.w3.org/2000/svg">
<rect width="150" height="150" rx="75" fill="#950002"/>
<path d="M115.779 94.459L95.279 48.334C95.0776 47.8811 94.7493 47.4963 94.3337 47.2263C93.9181 46.9562 93.4331 46.8125 92.9375 46.8125H57.0625C56.5712 46.8133 56.0904 46.9553 55.6776 47.2217C55.2647 47.488 54.9371 47.8675 54.7338 48.3148C54.7329 48.3211 54.7329 48.3276 54.7338 48.334V48.3724L34.221 94.459C34.0476 94.8491 33.9743 95.2764 34.008 95.7021C34.0417 96.1277 34.1812 96.5382 34.4138 96.8962C34.6464 97.2542 34.9648 97.5484 35.3401 97.7521C35.7153 97.9558 36.1355 98.0625 36.5625 98.0625H113.438C113.864 98.0625 114.285 97.9558 114.66 97.7521C115.035 97.5484 115.354 97.2542 115.586 96.8962C115.819 96.5382 115.958 96.1277 115.992 95.7021C116.026 95.2764 115.952 94.8491 115.779 94.459ZM54.5 92.9375H40.5055L54.5 61.4508V92.9375ZM59.625 92.9375V61.4508L73.6195 92.9375H59.625ZM79.2281 92.9375L61.0055 51.9375H91.2719L109.494 92.9375H79.2281Z" fill="white"/>
</svg>
